<mxfile host="app.diagrams.net" agent="Mozilla/5.0 (Windows NT 10.0; Win64; x64) AppleWebKit/537.36 (KHTML, like Gecko) Chrome/128.0.0.0 Safari/537.36 Edg/128.0.0.0" version="24.7.10">
  <diagram id="C5RBs43oDa-KdzZeNtuy" name="Page-1">
    <mxGraphModel dx="1554" dy="855" grid="1" gridSize="10" guides="1" tooltips="1" connect="1" arrows="1" fold="1" page="1" pageScale="1" pageWidth="827" pageHeight="1169" math="0" shadow="0">
      <root>
        <mxCell id="WIyWlLk6GJQsqaUBKTNV-0" />
        <mxCell id="WIyWlLk6GJQsqaUBKTNV-1" parent="WIyWlLk6GJQsqaUBKTNV-0" />
        <mxCell id="OsKlrGUe2dfVZxij0xIN-3" value="Start" style="strokeWidth=2;html=1;shape=mxgraph.flowchart.terminator;whiteSpace=wrap;" parent="WIyWlLk6GJQsqaUBKTNV-1" vertex="1">
          <mxGeometry x="128" y="120" width="100" height="60" as="geometry" />
        </mxCell>
        <mxCell id="OsKlrGUe2dfVZxij0xIN-8" value="Connect to&lt;br&gt;WiFi Router" style="rounded=1;whiteSpace=wrap;html=1;absoluteArcSize=1;arcSize=14;strokeWidth=2;" parent="WIyWlLk6GJQsqaUBKTNV-1" vertex="1">
          <mxGeometry x="128" y="320" width="100" height="60" as="geometry" />
        </mxCell>
        <mxCell id="OsKlrGUe2dfVZxij0xIN-10" value="CircuitPython&lt;br&gt;Initialization" style="rounded=1;whiteSpace=wrap;html=1;absoluteArcSize=1;arcSize=14;strokeWidth=2;" parent="WIyWlLk6GJQsqaUBKTNV-1" vertex="1">
          <mxGeometry x="128" y="220" width="100" height="60" as="geometry" />
        </mxCell>
        <mxCell id="OsKlrGUe2dfVZxij0xIN-11" value="Connected?" style="strokeWidth=2;html=1;shape=mxgraph.flowchart.decision;whiteSpace=wrap;" parent="WIyWlLk6GJQsqaUBKTNV-1" vertex="1">
          <mxGeometry x="128" y="420" width="100" height="100" as="geometry" />
        </mxCell>
        <mxCell id="OsKlrGUe2dfVZxij0xIN-12" value="" style="endArrow=classic;html=1;rounded=0;exitX=0;exitY=0.5;exitDx=0;exitDy=0;exitPerimeter=0;entryX=0;entryY=0.5;entryDx=0;entryDy=0;" parent="WIyWlLk6GJQsqaUBKTNV-1" source="OsKlrGUe2dfVZxij0xIN-11" target="OsKlrGUe2dfVZxij0xIN-8" edge="1">
          <mxGeometry width="50" height="50" relative="1" as="geometry">
            <mxPoint x="224" y="520" as="sourcePoint" />
            <mxPoint x="44" y="360" as="targetPoint" />
            <Array as="points">
              <mxPoint x="104" y="470" />
              <mxPoint x="104" y="350" />
            </Array>
          </mxGeometry>
        </mxCell>
        <mxCell id="OsKlrGUe2dfVZxij0xIN-13" value="No" style="text;html=1;align=center;verticalAlign=middle;resizable=0;points=[];autosize=1;strokeColor=none;fillColor=none;" parent="WIyWlLk6GJQsqaUBKTNV-1" vertex="1">
          <mxGeometry x="94" y="470" width="40" height="30" as="geometry" />
        </mxCell>
        <mxCell id="OsKlrGUe2dfVZxij0xIN-14" value="Yes" style="text;html=1;align=center;verticalAlign=middle;resizable=0;points=[];autosize=1;strokeColor=none;fillColor=none;" parent="WIyWlLk6GJQsqaUBKTNV-1" vertex="1">
          <mxGeometry x="214" y="440" width="40" height="30" as="geometry" />
        </mxCell>
        <mxCell id="OsKlrGUe2dfVZxij0xIN-16" value="" style="endArrow=classic;html=1;rounded=0;entryX=0.5;entryY=0;entryDx=0;entryDy=0;exitX=0.5;exitY=1;exitDx=0;exitDy=0;exitPerimeter=0;" parent="WIyWlLk6GJQsqaUBKTNV-1" source="OsKlrGUe2dfVZxij0xIN-3" target="OsKlrGUe2dfVZxij0xIN-10" edge="1">
          <mxGeometry width="50" height="50" relative="1" as="geometry">
            <mxPoint x="124" y="640" as="sourcePoint" />
            <mxPoint x="354" y="460" as="targetPoint" />
          </mxGeometry>
        </mxCell>
        <mxCell id="OsKlrGUe2dfVZxij0xIN-17" value="" style="endArrow=classic;html=1;rounded=0;entryX=0.5;entryY=0;entryDx=0;entryDy=0;exitX=0.5;exitY=1;exitDx=0;exitDy=0;" parent="WIyWlLk6GJQsqaUBKTNV-1" source="OsKlrGUe2dfVZxij0xIN-10" target="OsKlrGUe2dfVZxij0xIN-8" edge="1">
          <mxGeometry width="50" height="50" relative="1" as="geometry">
            <mxPoint x="124" y="300" as="sourcePoint" />
            <mxPoint x="174" y="250" as="targetPoint" />
          </mxGeometry>
        </mxCell>
        <mxCell id="OsKlrGUe2dfVZxij0xIN-18" value="" style="endArrow=classic;html=1;rounded=0;exitX=0.5;exitY=1;exitDx=0;exitDy=0;entryX=0.5;entryY=0;entryDx=0;entryDy=0;entryPerimeter=0;" parent="WIyWlLk6GJQsqaUBKTNV-1" source="OsKlrGUe2dfVZxij0xIN-8" target="OsKlrGUe2dfVZxij0xIN-11" edge="1">
          <mxGeometry width="50" height="50" relative="1" as="geometry">
            <mxPoint x="124" y="470" as="sourcePoint" />
            <mxPoint x="144" y="410" as="targetPoint" />
          </mxGeometry>
        </mxCell>
        <mxCell id="OsKlrGUe2dfVZxij0xIN-20" value="Read the Sensor&lt;br&gt;SPS30-PM2.5" style="rounded=1;whiteSpace=wrap;html=1;absoluteArcSize=1;arcSize=14;strokeWidth=2;" parent="WIyWlLk6GJQsqaUBKTNV-1" vertex="1">
          <mxGeometry x="284" y="120" width="120" height="60" as="geometry" />
        </mxCell>
        <mxCell id="COtREnFY8zkqWZRTIAMB-1" value="Put the&lt;br&gt;Value Sensor&lt;br&gt;to URL ESP32" style="shape=parallelogram;html=1;strokeWidth=2;perimeter=parallelogramPerimeter;whiteSpace=wrap;rounded=1;arcSize=12;size=0.23;" parent="WIyWlLk6GJQsqaUBKTNV-1" vertex="1">
          <mxGeometry x="274" y="220" width="140" height="60" as="geometry" />
        </mxCell>
        <mxCell id="COtREnFY8zkqWZRTIAMB-3" value="HTTP-Get URL&lt;br&gt;Data goes to&lt;br&gt;kirimdata.php" style="rounded=1;whiteSpace=wrap;html=1;absoluteArcSize=1;arcSize=14;strokeWidth=2;" parent="WIyWlLk6GJQsqaUBKTNV-1" vertex="1">
          <mxGeometry x="294" y="320" width="100" height="60" as="geometry" />
        </mxCell>
        <mxCell id="COtREnFY8zkqWZRTIAMB-4" value="Print the&lt;br&gt;Danger Status" style="shape=parallelogram;html=1;strokeWidth=2;perimeter=parallelogramPerimeter;whiteSpace=wrap;rounded=1;arcSize=12;size=0.23;" parent="WIyWlLk6GJQsqaUBKTNV-1" vertex="1">
          <mxGeometry x="454" y="360" width="140" height="60" as="geometry" />
        </mxCell>
        <mxCell id="COtREnFY8zkqWZRTIAMB-6" value="If PM2.5&lt;br&gt;&amp;gt; 100&lt;div&gt;ug/m3&lt;/div&gt;" style="strokeWidth=2;html=1;shape=mxgraph.flowchart.decision;whiteSpace=wrap;" parent="WIyWlLk6GJQsqaUBKTNV-1" vertex="1">
          <mxGeometry x="474" y="125" width="100" height="100" as="geometry" />
        </mxCell>
        <mxCell id="COtREnFY8zkqWZRTIAMB-7" value="Turn On Relay&lt;br&gt;(Actuator)" style="rounded=1;whiteSpace=wrap;html=1;absoluteArcSize=1;arcSize=14;strokeWidth=2;" parent="WIyWlLk6GJQsqaUBKTNV-1" vertex="1">
          <mxGeometry x="474" y="264.5" width="100" height="60" as="geometry" />
        </mxCell>
        <mxCell id="COtREnFY8zkqWZRTIAMB-8" value="Turn Off Relay&lt;br&gt;(Actuator)" style="rounded=1;whiteSpace=wrap;html=1;absoluteArcSize=1;arcSize=14;strokeWidth=2;" parent="WIyWlLk6GJQsqaUBKTNV-1" vertex="1">
          <mxGeometry x="618" y="145" width="100" height="60" as="geometry" />
        </mxCell>
        <mxCell id="COtREnFY8zkqWZRTIAMB-11" value="" style="endArrow=classic;html=1;rounded=0;exitX=0.5;exitY=1;exitDx=0;exitDy=0;exitPerimeter=0;entryX=0.5;entryY=0;entryDx=0;entryDy=0;" parent="WIyWlLk6GJQsqaUBKTNV-1" source="COtREnFY8zkqWZRTIAMB-6" target="COtREnFY8zkqWZRTIAMB-7" edge="1">
          <mxGeometry width="50" height="50" relative="1" as="geometry">
            <mxPoint x="524" y="180" as="sourcePoint" />
            <mxPoint x="574" y="130" as="targetPoint" />
          </mxGeometry>
        </mxCell>
        <mxCell id="COtREnFY8zkqWZRTIAMB-12" value="No" style="text;html=1;align=center;verticalAlign=middle;resizable=0;points=[];autosize=1;strokeColor=none;fillColor=none;" parent="WIyWlLk6GJQsqaUBKTNV-1" vertex="1">
          <mxGeometry x="564" y="180" width="40" height="30" as="geometry" />
        </mxCell>
        <mxCell id="COtREnFY8zkqWZRTIAMB-13" value="Yes" style="text;html=1;align=center;verticalAlign=middle;resizable=0;points=[];autosize=1;strokeColor=none;fillColor=none;" parent="WIyWlLk6GJQsqaUBKTNV-1" vertex="1">
          <mxGeometry x="484" y="218" width="40" height="30" as="geometry" />
        </mxCell>
        <mxCell id="COtREnFY8zkqWZRTIAMB-20" value="" style="endArrow=classic;html=1;rounded=0;entryX=0.5;entryY=0;entryDx=0;entryDy=0;exitX=0.5;exitY=1;exitDx=0;exitDy=0;" parent="WIyWlLk6GJQsqaUBKTNV-1" source="COtREnFY8zkqWZRTIAMB-1" target="COtREnFY8zkqWZRTIAMB-3" edge="1">
          <mxGeometry width="50" height="50" relative="1" as="geometry">
            <mxPoint x="404" y="370" as="sourcePoint" />
            <mxPoint x="454" y="320" as="targetPoint" />
          </mxGeometry>
        </mxCell>
        <mxCell id="COtREnFY8zkqWZRTIAMB-23" value="" style="endArrow=classic;html=1;rounded=0;entryX=0;entryY=0.5;entryDx=0;entryDy=0;exitX=1;exitY=0.5;exitDx=0;exitDy=0;exitPerimeter=0;" parent="WIyWlLk6GJQsqaUBKTNV-1" source="COtREnFY8zkqWZRTIAMB-6" target="COtREnFY8zkqWZRTIAMB-8" edge="1">
          <mxGeometry width="50" height="50" relative="1" as="geometry">
            <mxPoint x="584" y="80" as="sourcePoint" />
            <mxPoint x="634" y="30" as="targetPoint" />
          </mxGeometry>
        </mxCell>
        <mxCell id="COtREnFY8zkqWZRTIAMB-26" value="" style="endArrow=classic;html=1;rounded=0;exitX=0.5;exitY=1;exitDx=0;exitDy=0;entryX=0.5;entryY=0;entryDx=0;entryDy=0;entryPerimeter=0;" parent="WIyWlLk6GJQsqaUBKTNV-1" source="COtREnFY8zkqWZRTIAMB-4" target="COtREnFY8zkqWZRTIAMB-27" edge="1">
          <mxGeometry width="50" height="50" relative="1" as="geometry">
            <mxPoint x="274" y="610" as="sourcePoint" />
            <mxPoint x="598" y="440" as="targetPoint" />
          </mxGeometry>
        </mxCell>
        <mxCell id="COtREnFY8zkqWZRTIAMB-27" value="End" style="strokeWidth=2;html=1;shape=mxgraph.flowchart.terminator;whiteSpace=wrap;" parent="WIyWlLk6GJQsqaUBKTNV-1" vertex="1">
          <mxGeometry x="474" y="460" width="100" height="60" as="geometry" />
        </mxCell>
        <mxCell id="COtREnFY8zkqWZRTIAMB-28" value="" style="endArrow=classic;html=1;rounded=0;entryX=0.5;entryY=0;entryDx=0;entryDy=0;exitX=0.5;exitY=1;exitDx=0;exitDy=0;" parent="WIyWlLk6GJQsqaUBKTNV-1" source="COtREnFY8zkqWZRTIAMB-7" target="COtREnFY8zkqWZRTIAMB-4" edge="1">
          <mxGeometry width="50" height="50" relative="1" as="geometry">
            <mxPoint x="584" y="430" as="sourcePoint" />
            <mxPoint x="634" y="380" as="targetPoint" />
          </mxGeometry>
        </mxCell>
        <mxCell id="KUgcVAkkJ3LxkAscdYT8-0" value="Print the&lt;br&gt;Normal Status" style="shape=parallelogram;html=1;strokeWidth=2;perimeter=parallelogramPerimeter;whiteSpace=wrap;rounded=1;arcSize=12;size=0.23;" parent="WIyWlLk6GJQsqaUBKTNV-1" vertex="1">
          <mxGeometry x="594" y="264.5" width="140" height="60" as="geometry" />
        </mxCell>
        <mxCell id="KUgcVAkkJ3LxkAscdYT8-1" value="" style="endArrow=classic;html=1;rounded=0;exitX=0.5;exitY=1;exitDx=0;exitDy=0;" parent="WIyWlLk6GJQsqaUBKTNV-1" source="COtREnFY8zkqWZRTIAMB-8" edge="1">
          <mxGeometry width="50" height="50" relative="1" as="geometry">
            <mxPoint x="457" y="300" as="sourcePoint" />
            <mxPoint x="668" y="265" as="targetPoint" />
          </mxGeometry>
        </mxCell>
        <mxCell id="KUgcVAkkJ3LxkAscdYT8-3" value="" style="endArrow=classic;html=1;rounded=0;entryX=1;entryY=0.5;entryDx=0;entryDy=0;entryPerimeter=0;" parent="WIyWlLk6GJQsqaUBKTNV-1" target="COtREnFY8zkqWZRTIAMB-27" edge="1">
          <mxGeometry width="50" height="50" relative="1" as="geometry">
            <mxPoint x="667" y="325" as="sourcePoint" />
            <mxPoint x="507" y="250" as="targetPoint" />
            <Array as="points">
              <mxPoint x="667" y="490" />
            </Array>
          </mxGeometry>
        </mxCell>
        <mxCell id="ZrIirQHJT5mX4CsNw6nk-0" value="" style="endArrow=classic;html=1;rounded=0;exitX=1;exitY=0.5;exitDx=0;exitDy=0;exitPerimeter=0;entryX=0;entryY=0.5;entryDx=0;entryDy=0;" edge="1" parent="WIyWlLk6GJQsqaUBKTNV-1" source="OsKlrGUe2dfVZxij0xIN-11" target="OsKlrGUe2dfVZxij0xIN-20">
          <mxGeometry width="50" height="50" relative="1" as="geometry">
            <mxPoint x="244" y="510" as="sourcePoint" />
            <mxPoint x="504" y="380" as="targetPoint" />
            <Array as="points">
              <mxPoint x="254" y="470" />
              <mxPoint x="254" y="150" />
            </Array>
          </mxGeometry>
        </mxCell>
        <mxCell id="ZrIirQHJT5mX4CsNw6nk-1" value="" style="endArrow=classic;html=1;rounded=0;exitX=0.5;exitY=1;exitDx=0;exitDy=0;entryX=0;entryY=0.5;entryDx=0;entryDy=0;entryPerimeter=0;" edge="1" parent="WIyWlLk6GJQsqaUBKTNV-1" source="COtREnFY8zkqWZRTIAMB-3" target="COtREnFY8zkqWZRTIAMB-6">
          <mxGeometry width="50" height="50" relative="1" as="geometry">
            <mxPoint x="454" y="430" as="sourcePoint" />
            <mxPoint x="504" y="380" as="targetPoint" />
            <Array as="points">
              <mxPoint x="344" y="410" />
              <mxPoint x="434" y="410" />
              <mxPoint x="434" y="175" />
            </Array>
          </mxGeometry>
        </mxCell>
        <mxCell id="ZrIirQHJT5mX4CsNw6nk-2" value="" style="endArrow=classic;html=1;rounded=0;exitX=0.5;exitY=1;exitDx=0;exitDy=0;entryX=0.5;entryY=0;entryDx=0;entryDy=0;" edge="1" parent="WIyWlLk6GJQsqaUBKTNV-1" source="OsKlrGUe2dfVZxij0xIN-20" target="COtREnFY8zkqWZRTIAMB-1">
          <mxGeometry width="50" height="50" relative="1" as="geometry">
            <mxPoint x="454" y="430" as="sourcePoint" />
            <mxPoint x="504" y="380" as="targetPoint" />
          </mxGeometry>
        </mxCell>
      </root>
    </mxGraphModel>
  </diagram>
</mxfile>
